<?xml version="1.0" standalone="no"?>
<!DOCTYPE svg PUBLIC "-//W3C//DTD SVG 20010904//EN"
 "http://www.w3.org/TR/2001/REC-SVG-20010904/DTD/svg10.dtd">
<svg version="1.0" xmlns="http://www.w3.org/2000/svg"
 width="512.000000pt" height="512.000000pt" viewBox="0 0 512.000000 512.000000"
 preserveAspectRatio="xMidYMid meet">
<metadata>
Created by potrace 1.14, written by Peter Selinger 2001-2017
</metadata>
<g transform="translate(0.000000,512.000000) scale(0.100000,-0.100000)"
fill="#000000" stroke="none">
<path d="M415 5110 c-197 -40 -362 -202 -404 -398 -8 -38 -11 -636 -11 -2161
0 -2281 -3 -2139 50 -2256 66 -144 216 -259 372 -285 42 -6 770 -10 2153 -10
2253 0 2140 -2 2255 53 145 69 255 214 279 367 7 44 11 748 10 2160 0 2272 3
2139 -54 2255 -54 111 -157 203 -280 252 l-70 28 -2130 1 c-1172 1 -2148 -2
-2170 -6z"/>
</g>
</svg>
